<svg width="228.125" height="47.35" viewBox="0 0 228.125 47.35" xmlns="http://www.w3.org/2000/svg"><g id="svgGroup" stroke-linecap="round" fill-rule="evenodd" font-size="9pt" stroke="#000" stroke-width="0" fill="#eea5af" style="stroke:#000;stroke-width:0;fill:#eea5af"><path d="M 14.7 15.4 L 17.05 12.55 A 69.596 69.596 0 0 0 18.132 11.192 Q 18.653 10.52 19.087 9.919 A 33.316 33.316 0 0 0 19.575 9.225 A 25.624 25.624 0 0 0 20.967 6.933 A 29.645 29.645 0 0 0 21.4 6.1 A 8.466 8.466 0 0 0 21.663 5.607 Q 21.896 5.127 21.968 4.782 A 1.388 1.388 0 0 0 22 4.5 A 0.486 0.486 0 0 0 21.694 4.041 Q 21.462 3.927 21.052 3.905 A 3.83 3.83 0 0 0 20.85 3.9 A 6.754 6.754 0 0 0 19.424 4.072 Q 18.013 4.38 16.122 5.238 A 33.12 33.12 0 0 0 14.85 5.85 A 35.655 35.655 0 0 0 9.732 9.096 A 39.368 39.368 0 0 0 9.4 9.35 A 32.978 32.978 0 0 0 6.371 11.991 A 27.43 27.43 0 0 0 4.825 13.65 A 16.936 16.936 0 0 0 3.463 15.462 Q 2.616 16.774 2.2 18.05 A 11.084 11.084 0 0 0 2.166 18.227 Q 2.141 18.366 2.125 18.475 Q 2.105 18.62 2.101 18.713 A 0.969 0.969 0 0 0 2.1 18.75 A 1.809 1.809 0 0 0 2.155 19.218 Q 2.316 19.819 2.95 19.927 A 1.79 1.79 0 0 0 3.25 19.95 Q 3.717 19.95 4.339 19.796 A 8.613 8.613 0 0 0 4.85 19.65 Q 5.8 19.35 6.725 18.9 A 12.413 12.413 0 0 0 7.262 18.624 Q 7.806 18.325 8.15 18.05 A 4.074 4.074 0 0 1 8.371 17.906 Q 8.709 17.7 8.9 17.7 A 0.526 0.526 0 0 1 9.012 17.711 Q 9.2 17.752 9.2 17.95 A 0.334 0.334 0 0 1 9.172 18.075 Q 9.102 18.249 8.85 18.5 A 7.097 7.097 0 0 1 8.305 18.951 Q 7.778 19.348 7.05 19.775 A 21.663 21.663 0 0 1 5.038 20.823 A 19.804 19.804 0 0 1 4.75 20.95 A 8.08 8.08 0 0 1 4.066 21.214 Q 3.713 21.33 3.401 21.389 A 3.244 3.244 0 0 1 2.8 21.45 A 2.775 2.775 0 0 1 1.677 21.228 A 2.664 2.664 0 0 1 0.8 20.6 Q 0 19.75 0 18.6 A 2.425 2.425 0 0 1 0.053 18.109 A 3.157 3.157 0 0 1 0.15 17.75 Q 1.048 14.978 3.715 12.206 A 26.55 26.55 0 0 1 5.35 10.65 Q 8.05 8.25 11.125 6.4 Q 14.2 4.55 16.975 3.475 A 22.643 22.643 0 0 1 18.571 2.92 Q 20.103 2.455 21.238 2.406 A 6.077 6.077 0 0 1 21.5 2.4 A 4.008 4.008 0 0 1 22.298 2.475 Q 23.074 2.633 23.55 3.125 A 2.442 2.442 0 0 1 24.192 4.396 A 3.495 3.495 0 0 1 24.25 5.05 A 3.647 3.647 0 0 1 24.163 5.815 Q 24.085 6.179 23.936 6.582 A 8.072 8.072 0 0 1 23.7 7.15 Q 22.847 8.817 20.762 11.416 A 70.939 70.939 0 0 1 19.45 13 A 0.846 0.846 0 0 0 19.43 13.022 Q 19.331 13.129 18.85 13.675 A 66.077 66.077 0 0 1 18.544 14.021 Q 18.196 14.411 17.715 14.94 A 268.515 268.515 0 0 1 17.25 15.45 A 249.582 249.582 0 0 0 15.063 17.907 A 189.323 189.323 0 0 0 13.1 20.175 A 151.135 151.135 0 0 0 11.35 22.269 A 112.938 112.938 0 0 0 9.8 24.2 A 30.528 30.528 0 0 0 8.709 25.709 Q 7.106 28.086 7.007 29.471 A 2.497 2.497 0 0 0 7 29.65 Q 7 30.55 7.7 30.55 A 2.303 2.303 0 0 0 8.391 30.44 Q 8.665 30.354 8.948 30.202 A 4.517 4.517 0 0 0 8.95 30.2 A 19.422 19.422 0 0 0 10.494 29.395 Q 11.847 28.616 13.425 27.475 Q 15.95 25.65 18.525 23.425 Q 21.1 21.2 23.15 19.15 A 30.787 30.787 0 0 0 24.365 17.859 Q 24.967 17.183 25.6 16.405 A 52.267 52.267 0 0 0 26.025 15.875 Q 27.55 13.95 28.875 12.025 A 68.415 68.415 0 0 0 29.642 10.888 Q 30.394 9.748 30.869 8.906 A 19.433 19.433 0 0 0 30.9 8.85 A 3.015 3.015 0 0 1 31.351 8.269 A 1.859 1.859 0 0 1 32.7 7.7 A 1.179 1.179 0 0 1 33.037 7.747 A 0.96 0.96 0 0 1 33.375 7.925 A 0.755 0.755 0 0 1 33.573 8.164 A 0.724 0.724 0 0 1 33.65 8.5 A 1.391 1.391 0 0 1 33.649 8.557 Q 33.644 8.665 33.625 8.875 A 14.365 14.365 0 0 1 33.603 9.099 Q 33.581 9.3 33.55 9.55 A 5.592 5.592 0 0 1 33.413 10.389 A 6.743 6.743 0 0 1 33.3 10.8 Q 32.85 12.45 30.7 17 Q 30.05 18.4 29.425 19.75 A 63.15 63.15 0 0 1 28.17 22.311 A 57.305 57.305 0 0 1 28.15 22.35 Q 29.209 22.028 29.717 21.918 A 5.159 5.159 0 0 1 29.8 21.9 A 4.66 4.66 0 0 1 30.239 21.836 Q 30.585 21.8 31 21.8 A 2.154 2.154 0 0 1 31.623 21.883 Q 32.55 22.163 32.55 23.4 Q 32.55 24.127 32.404 24.525 A 1.228 1.228 0 0 1 32.35 24.65 A 1.594 1.594 0 0 1 32.258 24.845 Q 32.139 25.054 31.992 25.12 A 0.343 0.343 0 0 1 31.85 25.15 Q 31.5 25.15 31.65 24.45 Q 31.697 24.31 31.7 24.125 A 1.564 1.564 0 0 0 31.7 24.1 A 0.8 0.8 0 0 0 31.657 23.826 Q 31.529 23.475 31.022 23.452 A 1.608 1.608 0 0 0 30.95 23.45 A 1.504 1.504 0 0 0 30.774 23.463 Q 30.478 23.498 29.951 23.637 A 15.11 15.11 0 0 0 29.9 23.65 Q 29.05 23.95 28.125 24.45 A 20.206 20.206 0 0 0 27.534 24.782 Q 27.011 25.088 26.65 25.35 Q 23.504 31.461 20.633 35.859 A 65.373 65.373 0 0 1 18.475 38.975 A 35.756 35.756 0 0 1 15.703 42.311 Q 14.186 43.914 12.641 45.063 A 17.321 17.321 0 0 1 10.65 46.35 A 11.965 11.965 0 0 1 9.605 46.856 Q 8.522 47.311 7.691 47.347 A 3.255 3.255 0 0 1 7.55 47.35 A 2.572 2.572 0 0 1 6.916 47.277 A 1.769 1.769 0 0 1 6 46.725 A 2.125 2.125 0 0 1 5.535 45.809 Q 5.45 45.463 5.45 45.05 A 5.468 5.468 0 0 1 5.661 43.587 Q 5.83 42.979 6.133 42.335 A 10.227 10.227 0 0 1 6.35 41.9 A 47.373 47.373 0 0 1 7.544 39.832 A 34.95 34.95 0 0 1 8.725 38.025 A 29.217 29.217 0 0 1 10.197 36.109 A 37.662 37.662 0 0 1 11.55 34.575 A 55.53 55.53 0 0 1 12.921 33.156 Q 13.548 32.528 14.268 31.839 A 116.08 116.08 0 0 1 15.8 30.4 Q 20.9 25.6 26 23.2 A 173.817 173.817 0 0 0 26.784 21.614 Q 27.256 20.644 27.65 19.8 A 508.724 508.724 0 0 1 28.147 18.739 Q 28.342 18.323 28.518 17.951 A 253.906 253.906 0 0 1 28.85 17.25 Q 29.156 16.6 29.463 15.744 A 26.324 26.324 0 0 0 29.65 15.2 A 120.744 120.744 0 0 0 29.964 14.244 Q 30.238 13.4 30.55 12.4 Q 27.242 16.689 25.034 19.076 A 34.734 34.734 0 0 1 24.1 20.05 Q 22.1 22.05 19.625 24.225 Q 17.15 26.4 14.65 28.275 A 46.979 46.979 0 0 1 12.534 29.777 Q 11.22 30.654 10.025 31.3 Q 7.9 32.45 6.55 32.45 Q 4.8 32.45 4.8 30.2 A 3.984 3.984 0 0 1 4.994 29.057 Q 5.531 27.291 7.55 24.5 A 132.089 132.089 0 0 1 9.05 22.507 A 179.893 179.893 0 0 1 10.75 20.325 A 458.114 458.114 0 0 1 12.638 17.957 A 584.288 584.288 0 0 1 14.7 15.4 Z M 87.4 26.85 L 88.95 24.4 A 335.425 335.425 0 0 0 91.794 19.869 A 257.484 257.484 0 0 0 94.325 15.675 A 97.628 97.628 0 0 0 95.969 12.783 Q 96.754 11.343 97.39 10.04 A 50.813 50.813 0 0 0 98.1 8.525 Q 99.5 5.4 99.5 3.5 Q 99.5 1.4 97.55 1.4 Q 96.5 1.4 94.9 2 Q 93.3 2.65 91.475 3.65 A 35.007 35.007 0 0 0 89.594 4.763 A 46.401 46.401 0 0 0 87.6 6.1 Q 84.9 8 82.55 10.275 A 30.748 30.748 0 0 0 80.033 13.012 A 25.015 25.015 0 0 0 78.625 14.925 Q 77.161 17.133 76.626 19.19 A 10.283 10.283 0 0 0 76.55 19.5 Q 76.35 20.35 76.35 21.35 A 4.672 4.672 0 0 0 76.614 22.989 Q 77.379 25.039 80.366 25.189 A 9.679 9.679 0 0 0 80.85 25.2 Q 81.2 25.2 82.225 24.925 Q 83.25 24.65 84.3 24.3 A 40.605 40.605 0 0 0 84.724 24.157 Q 85.416 23.918 85.65 23.8 Q 85.95 23.65 86.1 23.65 A 0.432 0.432 0 0 1 86.219 23.665 Q 86.352 23.703 86.387 23.839 A 0.442 0.442 0 0 1 86.4 23.95 A 0.583 0.583 0 0 1 86.264 24.315 Q 86.113 24.508 85.794 24.679 A 2.985 2.985 0 0 1 85.65 24.75 Q 85.25 24.95 84.25 25.25 Q 83.25 25.55 82.275 25.8 Q 81.525 25.993 81.086 26.037 A 2.37 2.37 0 0 1 80.85 26.05 Q 77.964 26.002 76.443 25.075 A 4.244 4.244 0 0 1 76.325 25 A 3.208 3.208 0 0 1 74.972 23.077 Q 74.822 22.519 74.803 21.845 A 6.986 6.986 0 0 1 74.8 21.65 A 5.235 5.235 0 0 1 74.811 21.329 Q 74.828 21.044 74.875 20.7 Q 74.95 20.15 75.05 19.5 Q 75.95 15.25 79.7 11.05 Q 82.2 8.25 85.25 6 A 39.577 39.577 0 0 1 90.289 2.823 A 35.651 35.651 0 0 1 91.475 2.225 A 29.75 29.75 0 0 1 94.369 1.01 Q 95.963 0.443 97.45 0.15 A 13.119 13.119 0 0 1 98.09 0.059 Q 98.594 0 99 0 Q 101.85 0 101.85 2.75 Q 101.85 3.7 101.55 4.85 Q 101.05 6.95 100.075 8.975 A 38.034 38.034 0 0 1 98.836 11.325 A 49.04 49.04 0 0 1 97.675 13.25 A 320.855 320.855 0 0 1 96.337 15.344 Q 95.649 16.413 94.875 17.598 A 556.764 556.764 0 0 1 94.35 18.4 L 91.5 22.75 A 0.192 0.192 0 0 0 91.484 22.797 Q 91.468 22.872 91.523 22.947 A 0.309 0.309 0 0 0 91.525 22.95 Q 91.6 23.05 91.7 22.95 A 30.985 30.985 0 0 1 92.144 22.489 Q 92.647 21.977 93.335 21.312 A 111.999 111.999 0 0 1 94 20.675 A 75.751 75.751 0 0 1 94.8 19.927 Q 96.065 18.76 97.773 17.274 A 214.035 214.035 0 0 1 97.8 17.25 Q 100 15.3 102.25 13.5 A 97.821 97.821 0 0 1 104.444 11.794 A 77.938 77.938 0 0 1 106.525 10.275 Q 108.076 9.184 109.377 8.445 A 21.7 21.7 0 0 1 110.15 8.025 A 12.49 12.49 0 0 1 110.951 7.645 Q 111.739 7.308 112.31 7.226 A 2.418 2.418 0 0 1 112.65 7.2 A 2.73 2.73 0 0 1 113.431 7.302 Q 114.6 7.652 114.6 9.2 Q 114.6 10.571 113.573 12.612 A 17.631 17.631 0 0 1 113.45 12.85 Q 112.35 14.85 111.275 16.875 Q 110.2 18.9 109.2 20.9 L 109.15 20.9 A 155.056 155.056 0 0 0 107.726 23.777 Q 105.885 27.603 105.304 29.51 A 8.085 8.085 0 0 0 105.1 30.3 A 19.857 19.857 0 0 0 105.022 30.758 Q 104.978 31.036 104.95 31.275 Q 104.9 31.7 104.9 32 Q 104.9 32.642 105.04 33.106 A 2.169 2.169 0 0 0 105.175 33.45 Q 105.411 33.921 105.921 33.989 A 1.362 1.362 0 0 0 106.1 34 A 2.287 2.287 0 0 0 106.509 33.959 Q 106.941 33.88 107.53 33.65 A 11.3 11.3 0 0 0 107.95 33.475 A 10.845 10.845 0 0 0 110.112 32.205 A 12.044 12.044 0 0 0 110.25 32.1 A 11.852 11.852 0 0 1 110.602 31.846 Q 111.151 31.465 111.446 31.377 A 0.551 0.551 0 0 1 111.6 31.35 A 0.392 0.392 0 0 1 111.673 31.356 Q 111.793 31.379 111.8 31.487 A 0.21 0.21 0 0 1 111.8 31.5 A 0.415 0.415 0 0 1 111.786 31.602 Q 111.761 31.7 111.693 31.826 A 1.931 1.931 0 0 1 111.65 31.9 Q 111.396 32.336 110.878 32.772 A 6.376 6.376 0 0 1 110.45 33.1 Q 108.85 34.25 107.725 34.875 Q 106.6 35.5 105.85 35.5 Q 104.45 35.5 103.575 34.6 Q 102.7 33.7 102.7 32.05 A 2.369 2.369 0 0 1 102.704 31.922 Q 102.711 31.795 102.73 31.62 A 10.977 10.977 0 0 1 102.75 31.45 Q 102.798 31.07 102.89 30.51 A 43.893 43.893 0 0 1 102.9 30.45 Q 103.234 28.876 104.229 26.481 A 46.774 46.774 0 0 1 104.325 26.25 A 79.368 79.368 0 0 1 105.371 23.885 Q 106.111 22.279 107.025 20.45 A 433.908 433.908 0 0 1 108.719 17.1 A 522.858 522.858 0 0 1 110.55 13.55 Q 111.35 12 111.35 11.3 Q 111.35 10.666 110.846 10.534 A 1.179 1.179 0 0 0 110.55 10.5 Q 109.85 10.5 108.675 11.025 Q 107.5 11.55 106.175 12.35 Q 104.85 13.15 103.6 14 Q 102.35 14.85 101.5 15.5 A 44.668 44.668 0 0 0 99.366 17.294 Q 98.231 18.307 97.025 19.5 Q 94.65 21.85 92.425 24.45 A 52.786 52.786 0 0 0 89.498 28.188 A 45.687 45.687 0 0 0 88.5 29.65 A 0.52 0.52 0 0 0 88.475 29.711 Q 88.439 29.814 88.404 30.007 A 4.834 4.834 0 0 0 88.4 30.025 Q 88.35 30.3 88.3 30.7 A 16.142 16.142 0 0 1 88.299 30.717 Q 88.249 31.757 88.075 32.55 Q 87.911 33.3 87.461 34.138 A 8.802 8.802 0 0 1 87.4 34.25 A 183.165 183.165 0 0 0 87.152 34.713 Q 86.956 35.079 86.8 35.375 A 7.782 7.782 0 0 1 86.649 35.65 Q 86.488 35.929 86.35 36.1 A 3.015 3.015 0 0 1 85.899 36.682 A 1.859 1.859 0 0 1 84.55 37.25 A 2.075 2.075 0 0 1 83.866 37.141 A 1.815 1.815 0 0 1 83.275 36.8 A 1.571 1.571 0 0 1 82.926 36.385 A 1.362 1.362 0 0 1 82.75 35.7 Q 82.75 35.35 82.9 35.05 A 31.12 31.12 0 0 1 83.898 32.896 Q 85.017 30.684 86.799 27.809 A 114.007 114.007 0 0 1 87.4 26.85 Z M 157.8 36.55 L 157.8 36.65 A 0.257 0.257 0 0 1 157.656 36.879 Q 157.459 36.995 156.993 37 A 3.97 3.97 0 0 1 156.95 37 Q 154.524 37 154.163 35.116 A 3.811 3.811 0 0 1 154.1 34.4 A 2.263 2.263 0 0 1 154.104 34.274 Q 154.114 34.095 154.15 33.825 Q 154.2 33.45 154.3 32.9 A 24.338 24.338 0 0 1 155.099 29.976 Q 155.76 28.016 156.8 25.85 Q 155.963 25.604 155.006 25.116 A 14.568 14.568 0 0 1 154.975 25.1 Q 154 24.6 153.35 23.625 Q 152.822 22.834 152.723 21.597 A 7.464 7.464 0 0 1 152.7 21 Q 152.7 19.25 153.55 18.075 A 2.868 2.868 0 0 1 154.426 17.262 Q 155.002 16.926 155.738 16.902 A 3.494 3.494 0 0 1 155.85 16.9 A 3.721 3.721 0 0 1 156.904 17.063 Q 157.347 17.194 157.821 17.43 A 7.918 7.918 0 0 1 158.4 17.75 Q 158.478 17.789 158.6 17.888 A 3.258 3.258 0 0 1 158.675 17.95 A 1.927 1.927 0 0 0 158.802 18.049 Q 158.96 18.163 159.2 18.3 Q 159.57 18.536 159.984 18.974 A 8.417 8.417 0 0 1 160.4 19.45 Q 161.65 17.6 162.975 15.925 Q 164.3 14.25 165.7 12.7 A 0.662 0.662 0 0 0 165.877 12.373 A 0.992 0.992 0 0 0 165.9 12.15 L 165.9 11.95 Q 165.9 11.619 166.034 11.467 A 0.369 0.369 0 0 1 166.05 11.45 A 1.851 1.851 0 0 1 166.303 11.244 Q 166.763 10.925 167.7 10.55 Q 167.908 10.425 167.978 10.3 A 0.295 0.295 0 0 0 168 10.25 A 0.815 0.815 0 0 1 168.526 9.963 A 1.185 1.185 0 0 1 168.7 9.95 A 2.008 2.008 0 0 1 169.849 10.314 A 2.561 2.561 0 0 1 170 10.425 A 1.636 1.636 0 0 1 170.153 10.562 Q 170.542 10.959 170.2 11.3 L 169.3 12.25 A 60.928 60.928 0 0 0 168.388 13.183 Q 167.988 13.601 167.553 14.068 A 112.834 112.834 0 0 0 166.65 15.05 Q 165.35 16.45 164.1 17.925 Q 162.85 19.4 161.7 21 L 162.6 22.35 A 32.462 32.462 0 0 1 163.35 23.532 A 37.118 37.118 0 0 1 163.6 23.95 A 43.257 43.257 0 0 0 167.507 23.065 A 36.508 36.508 0 0 0 169.275 22.525 A 30.116 30.116 0 0 0 173.768 20.597 A 33.842 33.842 0 0 0 174.5 20.2 Q 177.75 18.4 179.45 16.3 Q 180.677 14.785 181.019 13.347 A 4.734 4.734 0 0 0 181.15 12.25 A 4.087 4.087 0 0 0 179.8 9.203 A 6.703 6.703 0 0 0 178.725 8.375 A 8.628 8.628 0 0 0 176.529 7.417 Q 174.581 6.85 171.9 6.85 A 22.366 22.366 0 0 0 170.096 6.927 A 27.644 27.644 0 0 0 168.9 7.05 A 35.732 35.732 0 0 0 167.021 7.339 A 45.41 45.41 0 0 0 165.45 7.65 A 28.406 28.406 0 0 0 159.975 9.469 A 33.177 33.177 0 0 0 158.15 10.35 A 20.204 20.204 0 0 0 153.81 13.355 A 17.919 17.919 0 0 0 152.1 15.15 A 2.032 2.032 0 0 1 151.944 15.317 Q 151.557 15.682 151.25 15.482 A 0.619 0.619 0 0 1 151.15 15.4 Q 151.014 15.218 151.084 14.829 A 2.052 2.052 0 0 1 151.1 14.75 Q 151.15 14.4 151.65 13.65 Q 153.3 11.3 157.05 9.45 Q 159.55 8.15 162.3 7.25 A 47.092 47.092 0 0 1 165.987 6.202 A 40.084 40.084 0 0 1 167.6 5.85 A 31.878 31.878 0 0 1 169.414 5.546 Q 170.844 5.35 172 5.35 A 26.114 26.114 0 0 1 175.199 5.537 A 19.054 19.054 0 0 1 178.4 6.2 Q 181.076 7.059 182.438 8.425 A 4.614 4.614 0 0 1 183.85 11.8 A 5.389 5.389 0 0 1 183.389 13.927 Q 183.072 14.672 182.534 15.432 A 11.248 11.248 0 0 1 182 16.125 Q 180.15 18.35 176.5 20.4 A 33.608 33.608 0 0 1 174.499 21.42 Q 173.406 21.935 172.139 22.453 A 65.148 65.148 0 0 1 170.95 22.925 Q 167.65 24.2 164.3 25.05 A 11.336 11.336 0 0 0 164.625 25.589 Q 165.031 26.225 165.65 27.05 Q 166.55 28.25 167.625 29.525 A 65.584 65.584 0 0 0 169.224 31.354 A 58.097 58.097 0 0 0 169.75 31.925 Q 170.775 33.023 171.514 33.716 A 20.176 20.176 0 0 0 171.55 33.75 Q 175.65 37.55 179.95 37.55 A 8.43 8.43 0 0 0 186.166 34.862 A 11.93 11.93 0 0 0 186.85 34.1 A 0.337 0.337 0 0 1 187.091 34 A 0.444 0.444 0 0 1 187.1 34 Q 187.3 34 187.425 34.2 A 0.364 0.364 0 0 1 187.478 34.343 Q 187.499 34.486 187.4 34.65 A 12.111 12.111 0 0 1 184.55 37.164 A 11.114 11.114 0 0 1 183.225 37.875 Q 180.85 38.95 178.3 38.95 Q 174.35 38.95 171.4 36.6 A 20.248 20.248 0 0 1 170.221 35.546 Q 169.664 35.01 169.073 34.374 A 38.899 38.899 0 0 1 168.35 33.575 A 49.759 49.759 0 0 1 165.539 30.064 A 55.104 55.104 0 0 1 165.15 29.525 A 100.619 100.619 0 0 1 163.688 27.419 A 77.68 77.68 0 0 1 162.4 25.45 Q 160.3 25.8 158.5 25.9 A 41.794 41.794 0 0 0 157.367 28.217 A 34.353 34.353 0 0 0 156.8 29.55 Q 156.1 31.3 155.75 32.9 A 19.768 19.768 0 0 0 155.727 33.044 Q 155.694 33.25 155.675 33.4 A 5.376 5.376 0 0 0 155.664 33.494 Q 155.654 33.592 155.651 33.659 A 1.051 1.051 0 0 0 155.65 33.7 A 3.924 3.924 0 0 0 155.727 34.495 A 3.008 3.008 0 0 0 156 35.275 A 2.381 2.381 0 0 0 156.181 35.573 Q 156.42 35.904 156.7 35.981 A 0.648 0.648 0 0 0 156.8 36 A 2.277 2.277 0 0 1 157.079 36.052 Q 157.294 36.107 157.45 36.2 Q 157.66 36.326 157.764 36.487 A 0.658 0.658 0 0 1 157.8 36.55 Z M 125.1 26.55 L 125.15 25 A 6.792 6.792 0 0 0 125.097 24.126 Q 125.024 23.563 124.85 23.1 A 1.926 1.926 0 0 1 124.4 23.262 A 1.633 1.633 0 0 1 124.05 23.3 A 0.665 0.665 0 0 1 123.899 23.285 Q 123.65 23.227 123.65 22.95 A 1.025 1.025 0 0 1 123.925 22.257 Q 124.119 22.037 124.45 21.85 A 1.758 1.758 0 0 1 124.813 21.675 A 1.345 1.345 0 0 1 125.25 21.6 Q 126.08 21.6 126.395 22.555 A 3.009 3.009 0 0 1 126.475 22.85 A 9.982 9.982 0 0 1 126.708 25.002 A 10.376 10.376 0 0 1 126.7 25.4 L 128.75 23.7 A 9.147 9.147 0 0 0 130.317 22.241 A 10.749 10.749 0 0 0 130.75 21.7 A 5.669 5.669 0 0 1 131.368 21.009 Q 131.733 20.668 132.107 20.471 A 2.214 2.214 0 0 1 133.15 20.2 A 1.452 1.452 0 0 1 133.397 20.219 Q 133.85 20.298 133.85 20.7 A 0.581 0.581 0 0 1 133.745 21.028 Q 133.632 21.196 133.4 21.35 Q 129.554 24.123 127.148 26.056 A 70.058 70.058 0 0 0 126.6 26.5 Q 126.45 27.85 126.45 29.25 Q 126.45 30.247 126.822 30.603 A 0.733 0.733 0 0 0 127.35 30.8 Q 127.784 30.8 128.28 30.52 A 3.486 3.486 0 0 0 128.55 30.35 A 22.488 22.488 0 0 0 129.289 29.821 Q 129.634 29.563 129.931 29.316 A 13.587 13.587 0 0 0 129.95 29.3 Q 130.421 28.908 130.738 28.546 A 4.347 4.347 0 0 0 130.9 28.35 A 6.727 6.727 0 0 1 131.094 28.163 Q 131.388 27.892 131.553 27.824 A 0.26 0.26 0 0 1 131.65 27.8 Q 131.831 27.8 131.848 28.004 A 0.539 0.539 0 0 1 131.85 28.05 A 0.754 0.754 0 0 1 131.788 28.336 Q 131.693 28.569 131.451 28.841 A 3.705 3.705 0 0 1 131.3 29 A 2.217 2.217 0 0 1 131.134 29.151 A 1.735 1.735 0 0 1 131 29.25 A 2.774 2.774 0 0 1 130.918 29.329 Q 130.872 29.372 130.818 29.418 A 5.39 5.39 0 0 1 130.75 29.475 A 5.067 5.067 0 0 0 130.645 29.566 Q 130.593 29.611 130.55 29.652 A 2.574 2.574 0 0 0 130.5 29.7 Q 130.05 30.05 129.675 30.35 A 10.117 10.117 0 0 0 129.411 30.568 Q 129.283 30.678 129.174 30.78 A 5.319 5.319 0 0 0 129.05 30.9 A 23.285 23.285 0 0 1 128.056 31.787 Q 126.308 33.25 125.4 33.25 A 1.275 1.275 0 0 1 125.175 33.232 Q 124.939 33.189 124.8 33.05 A 0.764 0.764 0 0 1 124.642 32.804 Q 124.539 32.561 124.511 32.168 A 4.451 4.451 0 0 1 124.5 31.85 A 7.478 7.478 0 0 1 124.5 31.839 Q 124.501 31.42 124.548 30.961 A 11.149 11.149 0 0 1 124.65 30.225 Q 124.779 29.473 124.908 28.869 A 23.377 23.377 0 0 1 124.95 28.675 A 34.212 34.212 0 0 0 125.001 28.442 Q 125.087 28.045 125.098 27.93 A 0.305 0.305 0 0 0 125.1 27.9 A 78.696 78.696 0 0 0 122.092 30.633 Q 120.641 32.026 119.441 33.345 A 44.735 44.735 0 0 0 118.9 33.95 Q 116.69 36.47 115.417 38.795 A 18.398 18.398 0 0 0 115.1 39.4 Q 114.914 39.819 114.728 39.848 A 0.18 0.18 0 0 1 114.7 39.85 A 0.212 0.212 0 0 1 114.51 39.746 Q 114.485 39.705 114.468 39.649 A 0.656 0.656 0 0 1 114.45 39.575 A 1.043 1.043 0 0 1 114.436 39.464 Q 114.426 39.33 114.457 39.215 A 0.607 0.607 0 0 1 114.5 39.1 A 17.276 17.276 0 0 1 115.323 37.612 Q 116.02 36.477 117 35.2 A 52.767 52.767 0 0 1 119.248 32.474 A 64.364 64.364 0 0 1 120.775 30.8 Q 122.9 28.55 125.1 26.55 Z M 196.55 47.1 A 0.63 0.63 0 0 0 196.659 47.141 Q 196.866 47.2 197.25 47.2 A 4.764 4.764 0 0 0 197.44 47.197 Q 197.713 47.186 197.832 47.141 A 0.195 0.195 0 0 0 197.9 47.1 Q 199.775 45.413 202.044 41.785 A 64.943 64.943 0 0 0 203.6 39.15 Q 204.3 37.95 204.95 36.675 Q 205.6 35.4 206.25 34.05 Q 206.681 34.05 207.358 33.87 A 11.078 11.078 0 0 0 207.925 33.7 A 20.324 20.324 0 0 0 208.745 33.413 A 24.699 24.699 0 0 0 210.175 32.825 A 24.96 24.96 0 0 0 210.611 32.626 A 22.103 22.103 0 0 0 212.375 31.7 A 15.072 15.072 0 0 0 212.997 31.317 Q 213.282 31.131 213.516 30.956 A 5.953 5.953 0 0 0 213.95 30.6 A 20.413 20.413 0 0 0 214.143 30.424 A 22.084 22.084 0 0 0 216.825 27.425 A 27.445 27.445 0 0 0 217.894 25.891 A 21.414 21.414 0 0 0 219 23.975 A 13.627 13.627 0 0 0 219.091 23.794 Q 219.577 22.799 219.752 22.014 A 3.758 3.758 0 0 0 219.85 21.2 Q 219.85 20.961 219.808 20.765 A 1.322 1.322 0 0 0 219.7 20.45 Q 219.337 19.796 218.525 19.618 A 3.142 3.142 0 0 0 217.85 19.55 A 6.007 6.007 0 0 0 216.75 19.655 A 7.55 7.55 0 0 0 215.45 20.025 A 25.08 25.08 0 0 0 214.842 20.266 Q 214.317 20.481 213.731 20.746 A 48.67 48.67 0 0 0 212.55 21.3 Q 212.5 21.05 212.45 20.9 L 212.4 20.75 A 0.221 0.221 0 0 1 212.405 20.708 Q 212.427 20.597 212.55 20.35 A 1.034 1.034 0 0 0 212.572 20.303 Q 212.602 20.235 212.639 20.13 A 5.778 5.778 0 0 0 212.675 20.025 A 3.614 3.614 0 0 0 212.698 19.954 A 4.02 4.02 0 0 0 212.8 19.55 A 0.928 0.928 0 0 0 212.845 19.443 Q 212.95 19.144 212.95 18.6 A 2.77 2.77 0 0 0 212.927 18.226 Q 212.814 17.4 212.15 17.4 A 2.511 2.511 0 0 0 211.947 17.44 Q 211.688 17.502 211.548 17.607 A 0.401 0.401 0 0 0 211.4 17.8 A 164.084 164.084 0 0 1 210.735 19.643 Q 210.027 21.564 209.425 23.025 A 54.224 54.224 0 0 1 209.256 23.431 Q 208.747 24.641 208.317 25.485 A 13.942 13.942 0 0 1 207.9 26.25 Q 207.1 27.5 205.05 30 Q 202.75 32.75 200.725 35.75 A 46.185 46.185 0 0 0 199.049 38.418 A 35.194 35.194 0 0 0 197.45 41.5 A 20.644 20.644 0 0 0 196.999 42.57 Q 196.611 43.568 196.389 44.48 A 10.126 10.126 0 0 0 196.1 46.4 A 0.31 0.31 0 0 0 196.101 46.42 Q 196.107 46.52 196.178 46.642 A 1.11 1.11 0 0 0 196.25 46.75 A 3.748 3.748 0 0 0 196.381 46.916 A 2.929 2.929 0 0 0 196.55 47.1 Z M 51.443 34.033 A 1.228 1.228 0 0 0 52.1 34.2 A 0.966 0.966 0 0 0 52.168 34.198 Q 52.485 34.176 53.122 33.956 A 14.11 14.11 0 0 0 53.55 33.8 A 10.388 10.388 0 0 0 54.45 33.295 A 7.909 7.909 0 0 0 55.425 32.575 A 5.443 5.443 0 0 0 55.476 32.531 Q 56.182 31.9 55.65 31.9 A 0.747 0.747 0 0 0 55.581 31.904 Q 55.354 31.925 55.07 32.081 A 2.951 2.951 0 0 0 54.8 32.25 A 4.109 4.109 0 0 1 54.76 32.28 Q 53.98 32.85 53.2 32.85 A 1.301 1.301 0 0 1 52.952 32.828 Q 52.462 32.733 52.34 32.228 A 1.619 1.619 0 0 1 52.3 31.85 Q 52.3 31 52.825 29.85 A 21.015 21.015 0 0 1 52.879 29.734 Q 53.261 28.91 53.852 27.816 A 64.476 64.476 0 0 1 54.3 27 A 1.719 1.719 0 0 0 54.337 26.942 Q 54.419 26.809 54.5 26.625 Q 54.6 26.4 54.75 26.15 A 34.212 34.212 0 0 1 54.894 25.913 A 24.907 24.907 0 0 1 55.025 25.7 Q 55.15 25.5 55.2 25.3 Q 55.45 24.7 55.45 24.25 A 1.665 1.665 0 0 0 55.429 23.979 A 1.157 1.157 0 0 0 55.075 23.3 A 1.265 1.265 0 0 0 54.642 23.033 A 1.426 1.426 0 0 0 54.15 22.95 Q 53.6 22.95 53.15 23.25 A 25.684 25.684 0 0 1 52.653 24.23 Q 52.103 25.255 51.522 26.095 A 12.957 12.957 0 0 1 50.25 27.675 Q 48.7 29.3 46.85 30.45 Q 46.644 30.579 46.451 30.642 A 1.137 1.137 0 0 1 46.1 30.7 Q 45.469 30.7 45.336 30.14 A 1.474 1.474 0 0 1 45.3 29.8 A 1.538 1.538 0 0 1 45.32 29.567 Q 45.365 29.277 45.511 28.858 A 9.389 9.389 0 0 1 45.675 28.425 A 24.411 24.411 0 0 1 46.094 27.457 A 33.374 33.374 0 0 1 46.6 26.4 Q 47.15 25.3 47.75 24.35 A 21.661 21.661 0 0 1 47.805 24.265 Q 48.185 23.668 48.504 23.257 A 6.376 6.376 0 0 1 48.8 22.9 A 1.931 1.931 0 0 0 48.843 22.826 Q 48.911 22.7 48.936 22.602 A 0.415 0.415 0 0 0 48.95 22.5 A 0.861 0.861 0 0 0 48.95 22.469 Q 48.94 22.192 48.747 22.123 A 0.436 0.436 0 0 0 48.6 22.1 A 0.087 0.087 0 0 0 48.597 22.1 Q 48.513 22.104 48.24 22.265 A 6.594 6.594 0 0 0 48.1 22.35 Q 47 23.35 45.95 24.8 A 27.828 27.828 0 0 0 45.442 25.525 A 24.443 24.443 0 0 0 44.125 27.7 A 29.347 29.347 0 0 0 43.782 28.361 Q 43.514 28.895 43.303 29.376 A 14.561 14.561 0 0 0 42.95 30.25 Q 42.65 31 42.65 31.9 A 3.628 3.628 0 0 0 42.676 32.348 Q 42.778 33.165 43.284 33.427 A 1.218 1.218 0 0 0 43.85 33.55 A 2.349 2.349 0 0 0 44.493 33.456 Q 44.826 33.361 45.182 33.172 A 5.61 5.61 0 0 0 45.85 32.75 Q 47.4 31.75 48.975 30.175 Q 50.55 28.6 52.15 26.55 Q 51.18 29.282 50.907 31.057 A 8.273 8.273 0 0 0 50.8 32.3 Q 50.8 33.636 51.443 34.033 Z M 132.85 36.3 L 135 30.9 L 137.55 24.6 A 5.335 5.335 0 0 0 137.323 24.587 Q 136.879 24.569 136.212 24.602 A 25.976 25.976 0 0 0 135.8 24.625 A 22.88 22.88 0 0 0 134.987 24.692 Q 134.35 24.757 133.85 24.85 A 38.289 38.289 0 0 1 133.708 24.874 Q 133.569 24.896 133.464 24.912 A 11.244 11.244 0 0 1 133.375 24.925 Q 133.231 24.946 133.138 24.95 A 0.969 0.969 0 0 1 133.1 24.95 A 0.703 0.703 0 0 1 132.88 24.918 Q 132.654 24.844 132.55 24.6 A 0.487 0.487 0 0 1 132.654 24.378 Q 132.767 24.235 132.997 24.105 A 2.272 2.272 0 0 1 133.1 24.05 A 2.933 2.933 0 0 1 133.338 23.968 Q 133.462 23.93 133.604 23.897 A 5.342 5.342 0 0 1 133.7 23.875 A 46.097 46.097 0 0 1 133.984 23.816 Q 134.238 23.763 134.55 23.7 A 19.857 19.857 0 0 1 135.007 23.622 Q 135.286 23.579 135.525 23.55 A 11.365 11.365 0 0 0 135.724 23.525 Q 135.924 23.498 136.057 23.471 A 2.127 2.127 0 0 0 136.15 23.45 L 136.65 23.35 Q 136.9 23.3 137.25 23.25 Q 137.55 23.2 137.9 23.15 A 6.733 6.733 0 0 0 138.31 23.078 A 8.476 8.476 0 0 0 138.65 23 Q 139.019 22.494 139.726 21.267 A 65.163 65.163 0 0 0 139.85 21.05 Q 140.566 19.798 141.642 17.826 A 374.66 374.66 0 0 0 141.9 17.35 Q 142.666 15.934 143.212 14.972 A 59.688 59.688 0 0 1 143.525 14.425 A 61.434 61.434 0 0 1 143.781 13.99 Q 144.205 13.274 144.4 13 A 1.854 1.854 0 0 1 144.696 12.684 A 1.153 1.153 0 0 1 145.45 12.4 A 0.526 0.526 0 0 1 145.562 12.411 Q 145.75 12.452 145.75 12.65 A 0.148 0.148 0 0 1 145.743 12.684 Q 145.709 12.796 145.526 13.238 A 40.878 40.878 0 0 1 145.5 13.3 Q 145.253 13.712 144.736 14.698 A 107.892 107.892 0 0 0 144.5 15.15 Q 143.8 16.5 143 18.1 Q 142.2 19.7 141.55 21.1 Q 140.924 22.448 140.669 23.101 A 9.969 9.969 0 0 0 140.65 23.15 A 2.43 2.43 0 0 1 140.901 23.114 Q 141.032 23.102 141.18 23.101 A 4.125 4.125 0 0 1 141.225 23.1 L 142.05 23.1 A 21.808 21.808 0 0 1 142.581 23.107 A 17.541 17.541 0 0 1 143.075 23.125 A 12.349 12.349 0 0 1 143.414 23.148 Q 143.681 23.169 143.9 23.2 A 3.197 3.197 0 0 1 144.137 23.26 Q 144.6 23.397 144.6 23.6 A 0.09 0.09 0 0 1 144.579 23.651 Q 144.502 23.755 144.15 23.95 Q 143.918 24.043 143.3 24.136 A 14.653 14.653 0 0 1 143.2 24.15 Q 142.574 24.24 141.588 24.329 A 64.242 64.242 0 0 1 141.35 24.35 A 8.141 8.141 0 0 0 141.038 24.357 A 10.296 10.296 0 0 0 140.7 24.375 A 12.841 12.841 0 0 0 140.338 24.407 A 15.809 15.809 0 0 0 139.95 24.45 Q 138.45 26.9 135.85 32.6 Q 135.123 34.055 134.659 35.012 A 87.217 87.217 0 0 0 134.4 35.55 A 495.648 495.648 0 0 1 134.227 35.914 Q 133.881 36.638 133.8 36.8 A 3.147 3.147 0 0 1 133.608 37.034 Q 133.399 37.264 133.213 37.349 A 0.507 0.507 0 0 1 133 37.4 A 0.206 0.206 0 0 1 132.803 37.27 Q 132.758 37.175 132.751 37.01 A 1.459 1.459 0 0 1 132.75 36.95 Q 132.75 36.86 132.771 36.709 A 4.14 4.14 0 0 1 132.775 36.675 A 3.367 3.367 0 0 1 132.811 36.471 A 4.238 4.238 0 0 1 132.85 36.3 Z M 188.075 33.025 A 1.959 1.959 0 0 0 188.249 33.203 Q 188.858 33.75 189.9 33.75 A 3.708 3.708 0 0 0 190.242 33.734 Q 190.823 33.68 191.55 33.45 A 9.514 9.514 0 0 0 191.774 33.373 Q 192.263 33.196 192.795 32.946 A 16.823 16.823 0 0 0 193.85 32.4 Q 195.1 31.7 196.2 30.9 A 54.24 54.24 0 0 0 196.21 30.893 Q 197.302 30.098 197.8 29.65 Q 197.978 29.473 198.029 29.345 A 0.256 0.256 0 0 0 198.05 29.25 Q 198.05 29.134 197.96 29.108 A 0.216 0.216 0 0 0 197.9 29.1 A 0.819 0.819 0 0 0 197.662 29.16 Q 196.933 29.421 194.424 30.837 A 140.586 140.586 0 0 0 194.4 30.85 A 62.861 62.861 0 0 0 193.881 31.113 A 78.537 78.537 0 0 0 193.325 31.4 Q 192.75 31.7 192.1 32.05 Q 191.538 32.3 191.073 32.394 A 2.651 2.651 0 0 1 190.55 32.45 A 1.759 1.759 0 0 1 190.165 32.411 A 1.125 1.125 0 0 1 189.5 32 A 1.609 1.609 0 0 1 189.204 31.359 A 2.296 2.296 0 0 1 189.15 30.85 Q 189.15 29.35 190.05 28.1 A 11.473 11.473 0 0 1 190.421 27.611 Q 190.845 27.08 191.45 26.425 Q 192.35 25.45 193.35 24.575 A 13.618 13.618 0 0 1 193.516 24.433 Q 193.961 24.056 194.392 23.759 A 7.982 7.982 0 0 1 195.275 23.225 A 4.584 4.584 0 0 1 195.281 23.222 Q 196.202 22.751 196.75 23 A 2.316 2.316 0 0 0 196.759 23.206 Q 196.776 23.394 196.824 23.55 A 1.066 1.066 0 0 0 197.025 23.925 Q 197.3 24.25 197.65 24.25 Q 198.395 24.25 198.4 23.264 A 2.658 2.658 0 0 0 198.4 23.25 A 2.545 2.545 0 0 0 198.362 22.798 A 1.836 1.836 0 0 0 198.2 22.3 A 1.624 1.624 0 0 0 198.193 22.282 Q 197.976 21.722 197.432 21.563 A 1.716 1.716 0 0 0 196.95 21.5 A 2.583 2.583 0 0 0 196.939 21.5 Q 196.251 21.503 195.364 21.871 A 8.865 8.865 0 0 0 194.525 22.275 Q 193.1 23.05 191.625 24.325 Q 190.15 25.6 188.95 27.15 A 8.234 8.234 0 0 0 188.112 28.472 A 5.91 5.91 0 0 0 187.45 31.15 A 3.575 3.575 0 0 0 187.514 31.843 A 2.522 2.522 0 0 0 188.075 33.025 Z M 16.35 31.3 L 16.4 31.3 A 85.246 85.246 0 0 0 14.158 33.477 Q 13.073 34.572 12.16 35.586 A 44.831 44.831 0 0 0 11.125 36.775 A 30.968 30.968 0 0 0 9.753 38.529 Q 9.129 39.393 8.663 40.191 A 14.128 14.128 0 0 0 8.1 41.25 Q 7.45 42.5 7.45 43.4 A 1.664 1.664 0 0 0 7.5 43.829 Q 7.68 44.5 8.5 44.5 A 2.677 2.677 0 0 0 9.309 44.356 Q 10.499 43.974 12.328 42.583 A 26.278 26.278 0 0 0 12.5 42.45 Q 14.934 40.494 18.119 36.488 A 78.456 78.456 0 0 0 18.425 36.1 A 58.972 58.972 0 0 0 21.393 31.936 Q 22.83 29.734 24.281 27.159 A 107.536 107.536 0 0 0 25.25 25.4 A 79.818 79.818 0 0 0 22.06 27.201 Q 19.019 29.018 17.144 30.594 A 18.27 18.27 0 0 0 16.35 31.3 Z M 113.5 33.3 Q 112.45 33.3 111.65 32.75 A 3.221 3.221 0 0 1 110.453 30.796 A 5.025 5.025 0 0 1 110.35 29.75 Q 110.35 27.75 111.75 25.5 Q 113.018 23.463 115.475 21.713 A 20.542 20.542 0 0 1 116 21.35 A 1.78 1.78 0 0 1 116.546 21.099 Q 116.786 21.032 117.071 21.011 A 3.717 3.717 0 0 1 117.35 21 Q 118.45 21 119.325 21.6 A 1.973 1.973 0 0 1 119.708 21.937 Q 120.12 22.416 120.016 23.063 A 1.849 1.849 0 0 1 120 23.15 A 5.636 5.636 0 0 1 118.548 25.825 A 6.7 6.7 0 0 1 118.475 25.9 A 12.802 12.802 0 0 1 116.302 27.669 A 14.713 14.713 0 0 1 115.725 28.025 Q 114.15 28.95 112.5 29.8 Q 112.45 29.95 112.425 30.1 Q 112.4 30.25 112.4 30.4 Q 112.4 31.1 112.875 31.625 A 1.554 1.554 0 0 0 113.752 32.109 A 2.304 2.304 0 0 0 114.2 32.15 A 3.518 3.518 0 0 0 114.686 32.119 Q 115.029 32.071 115.3 31.95 A 24.357 24.357 0 0 0 115.859 31.734 Q 116.296 31.557 116.625 31.4 A 5.76 5.76 0 0 0 117.044 31.178 Q 117.251 31.057 117.48 30.905 A 12.643 12.643 0 0 0 117.85 30.65 Q 118.55 30.15 119.75 29.15 Q 120.3 28.75 120.4 28.75 A 0.278 0.278 0 0 1 120.5 28.767 Q 120.681 28.836 120.6 29.2 Q 120.1 30 118.875 30.95 Q 117.65 31.9 116.175 32.6 Q 115.003 33.157 114.004 33.271 A 4.437 4.437 0 0 1 113.5 33.3 Z M 180.55 33.3 Q 179.5 33.3 178.7 32.75 A 3.221 3.221 0 0 1 177.503 30.796 A 5.025 5.025 0 0 1 177.4 29.75 Q 177.4 27.75 178.8 25.5 Q 180.068 23.463 182.525 21.713 A 20.542 20.542 0 0 1 183.05 21.35 A 1.78 1.78 0 0 1 183.596 21.099 Q 183.836 21.032 184.121 21.011 A 3.717 3.717 0 0 1 184.4 21 Q 185.5 21 186.375 21.6 A 1.973 1.973 0 0 1 186.758 21.937 Q 187.17 22.416 187.066 23.063 A 1.849 1.849 0 0 1 187.05 23.15 A 5.636 5.636 0 0 1 185.598 25.825 A 6.7 6.7 0 0 1 185.525 25.9 A 12.802 12.802 0 0 1 183.352 27.669 A 14.713 14.713 0 0 1 182.775 28.025 Q 181.2 28.95 179.55 29.8 Q 179.5 29.95 179.475 30.1 Q 179.45 30.25 179.45 30.4 Q 179.45 31.1 179.925 31.625 A 1.554 1.554 0 0 0 180.802 32.109 A 2.304 2.304 0 0 0 181.25 32.15 A 3.518 3.518 0 0 0 181.736 32.119 Q 182.079 32.071 182.35 31.95 A 24.357 24.357 0 0 0 182.909 31.734 Q 183.346 31.557 183.675 31.4 A 5.76 5.76 0 0 0 184.094 31.178 Q 184.301 31.057 184.53 30.905 A 12.643 12.643 0 0 0 184.9 30.65 Q 185.6 30.15 186.8 29.15 Q 187.35 28.75 187.45 28.75 A 0.278 0.278 0 0 1 187.55 28.767 Q 187.731 28.836 187.65 29.2 Q 187.15 30 185.925 30.95 Q 184.7 31.9 183.225 32.6 Q 182.053 33.157 181.054 33.271 A 4.437 4.437 0 0 1 180.55 33.3 Z M 221 33.3 Q 219.95 33.3 219.15 32.75 A 3.221 3.221 0 0 1 217.953 30.796 A 5.025 5.025 0 0 1 217.85 29.75 Q 217.85 27.75 219.25 25.5 Q 220.518 23.463 222.975 21.713 A 20.542 20.542 0 0 1 223.5 21.35 A 1.78 1.78 0 0 1 224.046 21.099 Q 224.286 21.032 224.571 21.011 A 3.717 3.717 0 0 1 224.85 21 Q 225.95 21 226.825 21.6 A 1.973 1.973 0 0 1 227.208 21.937 Q 227.62 22.416 227.516 23.063 A 1.849 1.849 0 0 1 227.5 23.15 A 5.636 5.636 0 0 1 226.048 25.825 A 6.7 6.7 0 0 1 225.975 25.9 A 12.802 12.802 0 0 1 223.802 27.669 A 14.713 14.713 0 0 1 223.225 28.025 Q 221.65 28.95 220 29.8 Q 219.95 29.95 219.925 30.1 Q 219.9 30.25 219.9 30.4 Q 219.9 31.1 220.375 31.625 A 1.554 1.554 0 0 0 221.252 32.109 A 2.304 2.304 0 0 0 221.7 32.15 A 3.518 3.518 0 0 0 222.186 32.119 Q 222.529 32.071 222.8 31.95 A 24.357 24.357 0 0 0 223.359 31.734 Q 223.796 31.557 224.125 31.4 A 5.76 5.76 0 0 0 224.544 31.178 Q 224.751 31.057 224.98 30.905 A 12.643 12.643 0 0 0 225.35 30.65 Q 226.05 30.15 227.25 29.15 Q 227.8 28.75 227.9 28.75 A 0.278 0.278 0 0 1 228 28.767 Q 228.181 28.836 228.1 29.2 Q 227.6 30 226.375 30.95 Q 225.15 31.9 223.675 32.6 Q 222.503 33.157 221.504 33.271 A 4.437 4.437 0 0 1 221 33.3 Z M 56.85 33.8 Q 56.2 33.8 56.2 32.65 A 4.077 4.077 0 0 1 56.622 30.857 A 4.735 4.735 0 0 1 56.65 30.8 A 73.763 73.763 0 0 0 58.72 26.518 A 68.168 68.168 0 0 0 58.75 26.45 Q 59.4 25.15 59.975 23.95 A 166.699 166.699 0 0 1 60.531 22.8 A 128.443 128.443 0 0 1 61.05 21.75 Q 61.251 21.55 61.451 21.483 A 0.629 0.629 0 0 1 61.65 21.45 Q 62.242 21.45 62.088 21.948 A 1.167 1.167 0 0 1 62.05 22.05 A 8.65 8.65 0 0 1 61.965 22.33 Q 61.885 22.579 61.775 22.875 A 63.573 63.573 0 0 1 61.633 23.256 Q 61.506 23.594 61.35 24 A 49.076 49.076 0 0 0 61.001 24.944 Q 60.536 26.244 60.411 26.89 A 3.816 3.816 0 0 0 60.4 26.95 Q 61.8 25.7 63.275 24.625 A 28.656 28.656 0 0 1 64.696 23.651 A 20.848 20.848 0 0 1 66.05 22.85 A 8.226 8.226 0 0 1 66.805 22.489 Q 67.624 22.15 68.25 22.15 A 1.446 1.446 0 0 1 68.542 22.177 Q 68.987 22.269 69.042 22.679 A 0.914 0.914 0 0 1 69.05 22.8 A 1.414 1.414 0 0 1 68.949 23.31 Q 68.873 23.508 68.739 23.715 A 3.22 3.22 0 0 1 68.55 23.975 Q 68.27 24.326 67.989 24.48 A 0.905 0.905 0 0 1 67.55 24.6 A 0.676 0.676 0 0 1 67.377 24.579 A 0.492 0.492 0 0 1 67.15 24.45 A 0.609 0.609 0 0 0 67.063 24.43 Q 66.895 24.4 66.55 24.4 A 3.799 3.799 0 0 0 65.069 24.719 Q 64.157 25.103 63.2 25.95 A 18.022 18.022 0 0 0 60.523 28.754 A 20.899 20.899 0 0 0 59.85 29.675 Q 58.796 31.204 58.137 32.448 A 14.985 14.985 0 0 0 57.65 33.45 Q 57.3 33.8 56.85 33.8 Z M 43.9 25.7 L 44.1 25.7 A 1.061 1.061 0 0 1 44.206 25.705 Q 44.591 25.744 44.251 26.099 A 1.718 1.718 0 0 1 44.225 26.125 A 1.778 1.778 0 0 1 43.501 26.559 A 2.414 2.414 0 0 1 43.1 26.65 L 41.4 26.85 A 7.507 7.507 0 0 1 40.678 28.316 Q 40.259 28.983 39.675 29.65 Q 38.45 31.05 36.975 32.075 A 10.848 10.848 0 0 1 35.85 32.766 Q 35.26 33.076 34.702 33.26 A 5.747 5.747 0 0 1 34.2 33.4 Q 33.45 33.6 32.65 33.6 Q 30.985 33.6 30.742 32.324 A 2.533 2.533 0 0 1 30.7 31.85 A 1.33 1.33 0 0 1 30.702 31.791 Q 30.706 31.688 30.725 31.5 A 10.53 10.53 0 0 1 30.747 31.299 Q 30.769 31.119 30.8 30.9 Q 31.3 28.85 32.825 26.925 Q 34.35 25 36.35 23.55 A 2.258 2.258 0 0 1 37.005 23.197 Q 37.693 22.95 38.75 22.95 Q 39.7 22.95 40.425 23.225 A 2.398 2.398 0 0 1 40.909 23.47 A 1.64 1.64 0 0 1 41.45 24.05 A 2.107 2.107 0 0 1 41.736 24.923 A 2.621 2.621 0 0 1 41.75 25.2 Q 41.75 25.278 41.735 25.416 A 5.489 5.489 0 0 1 41.725 25.5 A 5.22 5.22 0 0 1 41.696 25.699 Q 41.677 25.818 41.65 25.95 Q 41.732 25.91 41.897 25.902 A 1.733 1.733 0 0 1 41.975 25.9 Q 42.2 25.9 42.55 25.85 A 65.277 65.277 0 0 0 43.061 25.775 A 58.507 58.507 0 0 0 43.225 25.75 A 4.402 4.402 0 0 1 43.846 25.701 A 4.859 4.859 0 0 1 43.9 25.7 Z M 208.2 30 L 207.3 31.9 Q 209.377 31.547 211.688 30.217 A 20.518 20.518 0 0 0 212.3 29.85 A 16.738 16.738 0 0 0 215.738 27.043 A 15.172 15.172 0 0 0 216.7 25.9 Q 218.312 23.782 218.312 21.664 A 5.579 5.579 0 0 0 218.3 21.3 A 1.511 1.511 0 0 0 218.065 20.845 Q 217.718 20.4 217.05 20.4 Q 216.4 20.4 215.425 20.85 Q 214.45 21.3 213.45 22 A 20.301 20.301 0 0 0 212.396 22.788 A 16.055 16.055 0 0 0 211.675 23.4 A 10.349 10.349 0 0 0 211.257 23.798 Q 210.875 24.185 210.665 24.498 A 2.484 2.484 0 0 0 210.6 24.6 A 2.404 2.404 0 0 0 210.46 24.825 Q 210.324 25.07 210.163 25.449 A 14.188 14.188 0 0 0 210 25.85 A 7.517 7.517 0 0 0 209.864 26.136 Q 209.763 26.363 209.7 26.55 A 9.955 9.955 0 0 1 209.656 26.68 Q 209.6 26.84 209.565 26.92 A 0.786 0.786 0 0 1 209.55 26.95 Q 209.3 27.6 208.95 28.375 Q 208.6 29.15 208.2 30 Z M 197.85 44.25 A 0.601 0.601 0 0 0 197.854 44.317 Q 197.861 44.384 197.885 44.417 A 0.076 0.076 0 0 0 197.95 44.45 A 0.313 0.313 0 0 0 198.087 44.411 Q 198.35 44.278 198.85 43.7 A 17.168 17.168 0 0 0 199.567 42.904 Q 200.106 42.263 200.45 41.7 Q 201.45 40.1 202.325 38.5 Q 203.2 36.9 204 35.3 A 38.369 38.369 0 0 0 204.487 34.325 Q 205.538 32.136 205.421 31.482 A 0.509 0.509 0 0 0 205.4 31.4 A 10.562 10.562 0 0 0 204.905 31.935 Q 204.368 32.552 203.718 33.447 A 35.077 35.077 0 0 0 203.625 33.575 A 47.421 47.421 0 0 0 202.456 35.281 A 59.965 59.965 0 0 0 201.525 36.75 Q 200.45 38.5 199.525 40.225 A 33.198 33.198 0 0 0 198.891 41.466 Q 198.592 42.085 198.358 42.647 A 17.417 17.417 0 0 0 198.1 43.3 Q 197.896 43.993 197.859 44.188 A 0.386 0.386 0 0 0 197.85 44.25 Z M 200.2 29.1 L 200.75 28 Q 200.837 27.914 200.98 27.6 A 6.42 6.42 0 0 0 201.025 27.5 A 8.589 8.589 0 0 1 201.152 27.226 Q 201.287 26.943 201.484 26.574 A 28.874 28.874 0 0 1 201.55 26.45 Q 201.9 25.75 202.1 25.2 A 7.847 7.847 0 0 0 202.307 24.549 A 6.38 6.38 0 0 0 202.4 24.15 Q 202.4 24.103 202.578 23.967 A 2.892 2.892 0 0 1 202.6 23.95 A 2.776 2.776 0 0 1 202.869 23.771 A 2.352 2.352 0 0 1 203 23.7 L 203.3 23.65 A 1.771 1.771 0 0 1 203.605 23.675 Q 203.778 23.705 203.92 23.773 A 1.044 1.044 0 0 1 203.975 23.8 Q 204.219 23.934 204.168 24.145 A 0.405 0.405 0 0 1 204.15 24.2 A 193.941 193.941 0 0 0 203.902 24.735 Q 203.706 25.157 203.55 25.5 A 21.239 21.239 0 0 0 203.377 25.892 Q 203.294 26.085 203.226 26.255 A 10.257 10.257 0 0 0 203.15 26.45 L 203.1 26.45 A 29.949 29.949 0 0 0 202.495 27.927 A 24.213 24.213 0 0 0 202.175 28.825 A 6.695 6.695 0 0 0 201.917 29.853 Q 201.844 30.294 201.844 30.713 A 4.746 4.746 0 0 0 201.85 30.95 L 201.9 32.3 A 1.617 1.617 0 0 1 201.771 32.802 A 1.426 1.426 0 0 1 201.55 33.15 A 5.584 5.584 0 0 1 201.411 33.251 Q 201.252 33.363 201.032 33.505 A 18.784 18.784 0 0 1 201 33.525 A 5.037 5.037 0 0 1 200.71 33.698 Q 200.444 33.844 200.1 34 A 0.111 0.111 0 0 1 200.064 34.023 Q 200.004 34.048 199.878 34.05 A 1.475 1.475 0 0 1 199.85 34.05 A 1.069 1.069 0 0 1 199.273 33.878 A 1.451 1.451 0 0 1 199.1 33.75 A 0.983 0.983 0 0 1 198.753 33.035 A 1.358 1.358 0 0 1 198.75 32.95 A 2.656 2.656 0 0 1 198.83 32.362 Q 199.09 31.244 200.2 29.1 Z M 40.35 27 L 39.15 27.15 Q 36.35 27.55 34.15 27.6 A 17.424 17.424 0 0 0 33.559 28.642 Q 32.974 29.766 32.8 30.6 Q 32.75 31.25 33.15 31.55 A 1.47 1.47 0 0 0 33.761 31.815 A 2.039 2.039 0 0 0 34.15 31.85 Q 34.56 31.85 35.255 31.531 A 8.076 8.076 0 0 0 35.575 31.375 Q 36.5 30.9 37.5 30.1 A 14.741 14.741 0 0 0 39.148 28.568 A 13.524 13.524 0 0 0 39.3 28.4 Q 39.533 28.168 39.765 27.828 A 5.716 5.716 0 0 0 39.8 27.775 A 16.342 16.342 0 0 1 40.168 27.248 A 19.077 19.077 0 0 1 40.35 27 Z M 112.8 28.45 A 0.779 0.779 0 0 0 113.016 28.412 Q 113.366 28.308 114.019 27.917 A 16.36 16.36 0 0 0 114.45 27.65 Q 115.7 26.85 116.8 25.9 Q 118.546 24.292 118.688 23.36 A 1.062 1.062 0 0 0 118.7 23.2 Q 118.7 22.95 118.55 22.75 A 0.522 0.522 0 0 0 118.4 22.586 Q 118.297 22.515 118.159 22.503 A 0.669 0.669 0 0 0 118.1 22.5 A 1.389 1.389 0 0 0 117.564 22.632 Q 116.605 23.045 114.9 24.75 A 7.597 7.597 0 0 0 112.801 28.448 A 5.054 5.054 0 0 0 112.8 28.45 Z M 179.85 28.45 A 0.779 0.779 0 0 0 180.066 28.412 Q 180.416 28.308 181.069 27.917 A 16.36 16.36 0 0 0 181.5 27.65 Q 182.75 26.85 183.85 25.9 Q 185.596 24.292 185.738 23.36 A 1.062 1.062 0 0 0 185.75 23.2 Q 185.75 22.95 185.6 22.75 A 0.522 0.522 0 0 0 185.45 22.586 Q 185.347 22.515 185.209 22.503 A 0.669 0.669 0 0 0 185.15 22.5 A 1.389 1.389 0 0 0 184.614 22.632 Q 183.655 23.045 181.95 24.75 A 7.597 7.597 0 0 0 179.851 28.448 A 5.054 5.054 0 0 0 179.85 28.45 Z M 220.3 28.45 A 0.779 0.779 0 0 0 220.516 28.412 Q 220.866 28.308 221.519 27.917 A 16.36 16.36 0 0 0 221.95 27.65 Q 223.2 26.85 224.3 25.9 Q 226.046 24.292 226.188 23.36 A 1.062 1.062 0 0 0 226.2 23.2 Q 226.2 22.95 226.05 22.75 A 0.522 0.522 0 0 0 225.9 22.586 Q 225.797 22.515 225.659 22.503 A 0.669 0.669 0 0 0 225.6 22.5 A 1.389 1.389 0 0 0 225.064 22.632 Q 224.105 23.045 222.4 24.75 A 7.597 7.597 0 0 0 220.301 28.448 A 5.054 5.054 0 0 0 220.3 28.45 Z M 157.739 23.93 A 14.36 14.36 0 0 0 157.6 24.2 Q 155.75 23.8 154.85 22.575 A 4.476 4.476 0 0 1 154.11 20.967 A 5.969 5.969 0 0 1 153.95 19.55 A 2.459 2.459 0 0 1 153.953 19.441 Q 153.987 18.661 154.53 18.466 A 1.238 1.238 0 0 1 154.95 18.4 Q 156.1 18.4 157.275 19.025 A 5.237 5.237 0 0 1 157.316 19.048 Q 157.955 19.395 158.542 19.942 A 8.278 8.278 0 0 1 159.45 20.95 Q 159.044 21.638 158.706 22.218 A 151.096 151.096 0 0 0 158.325 22.875 Q 157.969 23.494 157.739 23.93 Z M 204.088 21.791 A 2.127 2.127 0 0 0 204.3 21.8 A 4.688 4.688 0 0 0 204.375 21.8 Q 204.928 21.791 205.35 21.65 A 1.438 1.438 0 0 0 205.477 21.592 Q 205.931 21.357 206.5 20.7 A 9.539 9.539 0 0 0 206.7 20.462 A 10.509 10.509 0 0 0 207.675 19.025 A 6.958 6.958 0 0 0 207.696 18.988 Q 208.2 18.087 208.2 17.45 A 3.346 3.346 0 0 0 208.2 17.408 Q 208.197 17.143 208.15 17.05 A 20.434 20.434 0 0 1 207.92 17.352 Q 207.425 17.986 207.021 18.392 A 4.831 4.831 0 0 1 206.625 18.75 A 9.325 9.325 0 0 1 206.597 18.773 Q 206.174 19.108 205.541 19.532 A 32.609 32.609 0 0 1 204.9 19.95 Q 204.4 20.3 204.025 20.775 Q 203.753 21.121 203.678 21.347 A 0.497 0.497 0 0 0 203.65 21.5 Q 203.65 21.746 204.088 21.791 Z M 39.05 26.15 A 9.014 9.014 0 0 0 39.293 26.147 Q 39.51 26.141 39.775 26.125 Q 40.14 26.104 40.598 26.064 A 42.774 42.774 0 0 0 40.75 26.05 Q 40.794 25.963 40.799 25.687 A 4.252 4.252 0 0 0 40.8 25.6 Q 40.8 24.7 40.05 24.35 A 1.575 1.575 0 0 0 39.553 24.152 Q 39.351 24.107 39.117 24.101 A 2.8 2.8 0 0 0 39.05 24.1 A 2.596 2.596 0 0 0 38.127 24.277 A 3.573 3.573 0 0 0 37.525 24.575 Q 36.75 25.05 35.9 25.8 A 5.205 5.205 0 0 0 36.616 25.977 Q 37.574 26.15 39.05 26.15 Z M 161.7 24.25 L 160.6 22.55 Q 160.25 23.05 159.975 23.5 A 108.255 108.255 0 0 1 159.706 23.938 A 91.583 91.583 0 0 1 159.45 24.35 A 12.042 12.042 0 0 0 159.638 24.349 Q 159.895 24.345 160.236 24.33 A 36.002 36.002 0 0 0 160.35 24.325 A 56.829 56.829 0 0 0 160.798 24.303 Q 161.2 24.282 161.7 24.25 Z" vector-effect="non-scaling-stroke"/></g></svg>